<svg xmlns="http://www.w3.org/2000/svg" viewBox="0 0 420 520" fill="none" stroke="#1a1a1a" stroke-width="2" stroke-linecap="round" stroke-linejoin="round">

  <!-- AILE GAUCHE GRANDE -->
  <path d="M185 230 Q148 195 112 185 Q78 175 58 195 Q38 215 45 248 Q52 278 78 292 Q105 306 135 295 Q162 285 182 262"/>
  <path d="M185 235 Q155 225 128 232 Q105 238 95 255 Q88 270 96 282 Q105 294 120 290"/>
  <!-- Nervures aile gauche -->
  <path d="M184 234 Q162 220 138 222 Q116 224 100 236" stroke-width="1.2"/>
  <path d="M182 244 Q162 238 142 244 Q124 250 112 262" stroke-width="1.2"/>
  <path d="M180 254 Q163 254 148 264 Q135 274 128 286" stroke-width="1.2"/>
  <!-- Motifs aile gauche -->
  <ellipse cx="88" cy="234" rx="24" ry="18" transform="rotate(-15 88 234)"/>
  <ellipse cx="88" cy="234" rx="14" ry="11" transform="rotate(-15 88 234)"/>
  <circle cx="88" cy="234" r="5"/>
  <circle cx="140" cy="196" r="8"/>
  <circle cx="140" cy="196" r="4"/>
  <!-- Bord dentelé aile gauche -->
  <path d="M45 248 Q52 238 60 244 Q64 232 72 238 Q78 226 86 232 Q94 222 102 228 Q110 218 118 225 Q128 215 136 222" stroke-width="1.2"/>

  <!-- AILE GAUCHE PETITE (basse) -->
  <path d="M183 258 Q162 272 148 292 Q136 310 138 330 Q140 348 152 354 Q166 360 178 346 Q190 332 192 312 Q194 292 190 272"/>
  <!-- Motif petite aile gauche -->
  <ellipse cx="155" cy="318" rx="18" ry="24"/>
  <ellipse cx="155" cy="318" rx="10" ry="14"/>
  <circle cx="155" cy="318" r="4"/>

  <!-- AILE DROITE GRANDE -->
  <path d="M235 230 Q272 195 308 185 Q342 175 362 195 Q382 215 375 248 Q368 278 342 292 Q315 306 285 295 Q258 285 238 262"/>
  <path d="M235 235 Q265 225 292 232 Q315 238 325 255 Q332 270 324 282 Q315 294 300 290"/>
  <!-- Nervures aile droite -->
  <path d="M236 234 Q258 220 282 222 Q304 224 320 236" stroke-width="1.2"/>
  <path d="M238 244 Q258 238 278 244 Q296 250 308 262" stroke-width="1.2"/>
  <path d="M240 254 Q257 254 272 264 Q285 274 292 286" stroke-width="1.2"/>
  <!-- Motifs aile droite -->
  <ellipse cx="332" cy="234" rx="24" ry="18" transform="rotate(15 332 234)"/>
  <ellipse cx="332" cy="234" rx="14" ry="11" transform="rotate(15 332 234)"/>
  <circle cx="332" cy="234" r="5"/>
  <circle cx="280" cy="196" r="8"/>
  <circle cx="280" cy="196" r="4"/>
  <!-- Bord dentelé aile droite -->
  <path d="M375 248 Q368 238 360 244 Q356 232 348 238 Q342 226 334 232 Q326 222 318 228 Q310 218 302 225 Q292 215 284 222" stroke-width="1.2"/>

  <!-- AILE DROITE PETITE (basse) -->
  <path d="M237 258 Q258 272 272 292 Q284 310 282 330 Q280 348 268 354 Q254 360 242 346 Q230 332 228 312 Q226 292 230 272"/>
  <!-- Motif petite aile droite -->
  <ellipse cx="265" cy="318" rx="18" ry="24"/>
  <ellipse cx="265" cy="318" rx="10" ry="14"/>
  <circle cx="265" cy="318" r="4"/>

  <!-- CHEVEUX DERRIÈRE -->
  <path d="M162 154 Q138 170 130 198 Q124 220 130 260 Q135 290 142 320" stroke-width="2"/>
  <path d="M258 154 Q282 170 290 198 Q296 220 290 260 Q285 290 278 320" stroke-width="2"/>
  <path d="M158 156 Q135 175 128 210 Q124 235 132 270" stroke-width="1.5"/>
  <path d="M262 156 Q285 175 292 210 Q296 235 288 270" stroke-width="1.5"/>

  <!-- TÊTE -->
  <path d="M162 175 Q158 148 168 132 Q180 116 210 112 Q230 112 242 120 Q258 130 258 148 Q262 165 258 182 Q255 200 250 215 Q240 235 210 240 Q180 235 170 215 Q162 200 162 182Z"/>

  <!-- CHEVEUX AVANT ÉLABORÉS -->
  <path d="M165 148 Q170 130 185 128 Q195 126 200 138"/>
  <path d="M200 136 Q208 122 220 124 Q232 126 235 140"/>
  <path d="M255 148 Q250 130 235 128"/>
  <!-- Frange ondulée -->
  <path d="M168 142 Q175 132 184 136 Q192 126 202 130 Q212 122 222 128 Q232 122 240 130 Q248 126 254 136 Q260 130 264 140" stroke-width="1.5"/>
  <!-- Mèches -->
  <path d="M162 155 Q155 145 158 132 Q163 120 170 125" stroke-width="1.5"/>
  <path d="M258 155 Q265 145 262 132 Q257 120 250 125" stroke-width="1.5"/>

  <!-- OREILLES -->
  <path d="M162 180 Q152 183 149 192 Q148 202 155 206 Q161 208 164 200"/>
  <path d="M258 180 Q268 183 271 192 Q272 202 265 206 Q259 208 256 200"/>

  <!-- YEUX MANGA -->
  <!-- Oeil gauche -->
  <path d="M175 168 Q182 160 192 162 Q202 160 206 168 Q204 180 192 183 Q180 180 175 168Z"/>
  <ellipse cx="191" cy="172" rx="9" ry="10" fill="#1a1a1a"/>
  <circle cx="187" cy="168" r="4" fill="white"/>
  <circle cx="194" cy="177" r="2" fill="white"/>
  <path d="M175 167 L171 161 M180 164 L177 158 M186 162 L185 156 M192 161 L193 155 M198 163 L200 157 M204 167 L207 162"/>
  <path d="M178 180 L175 186 M185 182 L184 188 M192 183 L192 189"/>

  <!-- Oeil droit -->
  <path d="M214 168 Q218 160 228 162 Q238 160 245 168 Q243 180 228 183 Q216 180 214 168Z"/>
  <ellipse cx="229" cy="172" rx="9" ry="10" fill="#1a1a1a"/>
  <circle cx="225" cy="168" r="4" fill="white"/>
  <circle cx="232" cy="177" r="2" fill="white"/>
  <path d="M214 167 L210 161 M219 164 L217 158 M225 162 L224 156 M231 161 L231 155 M237 163 L239 157 M243 167 L246 162"/>
  <path d="M235 180 L238 186 M228 182 L228 188 M222 182 L222 188"/>

  <!-- SOURCILS -->
  <path d="M172 157 Q183 150 202 154" stroke-width="2.2"/>
  <path d="M218 154 Q237 150 246 157" stroke-width="2.2"/>

  <!-- NEZ ET BOUCHE -->
  <path d="M207 190 Q210 194 213 192" stroke-width="1.5"/>
  <path d="M196 205 Q210 216 224 205"/>
  <path d="M200 205 Q210 212 220 205" stroke-width="1"/>
  <!-- Joues -->
  <path d="M170 193 Q176 188 182 193 Q179 200 173 198Z" stroke-width="1" opacity="0.4"/>
  <path d="M238 193 Q244 188 250 193 Q248 200 241 198Z" stroke-width="1" opacity="0.4"/>

  <!-- COU -->
  <path d="M194 238 Q190 244 190 258 L190 266"/>
  <path d="M226 238 Q230 244 230 258 L230 266"/>

  <!-- ROBE ÉLABORÉE -->
  <!-- Corsage -->
  <path d="M170 268 Q158 275 150 285 Q144 295 145 305 L145 330"/>
  <path d="M250 268 Q262 275 270 285 Q276 295 275 305 L275 330"/>
  <path d="M170 268 Q190 278 210 276 Q222 274 250 268"/>
  <path d="M190 276 L210 296 L230 276" stroke-width="1.5"/>
  <!-- Jupe évasée -->
  <path d="M145 330 Q118 365 112 410 Q110 432 118 448 L302 448 Q310 432 308 410 Q302 365 275 330Z"/>
  <!-- Couches jupe -->
  <path d="M118 390 Q165 378 210 380 Q255 378 302 390" stroke-width="1.5"/>
  <path d="M114 420 Q162 408 210 410 Q258 408 306 420" stroke-width="1.5"/>
  <!-- Volant bas -->
  <path d="M112 445 Q118 438 126 444 Q134 437 142 443 Q150 436 158 442 Q166 435 174 441 Q182 434 190 440 Q198 433 206 439 Q214 432 222 438 Q230 431 238 437 Q246 430 254 436 Q262 429 270 435 Q278 428 286 434 Q294 427 302 433 Q308 428 302 445" stroke-width="1.5"/>
  <!-- Décors robe -->
  <path d="M150 342 Q158 336 166 342 Q174 336 182 342 Q190 336 198 342 Q206 336 214 342 Q222 336 230 342 Q238 336 246 342 Q254 336 262 342 Q270 336 270 342" stroke-width="1.2"/>
  <!-- Étoiles robe -->
  <path d="M155 368 L157 374 L163 374 L158 378 L160 384 L155 380 L150 384 L152 378 L147 374 L153 374Z" stroke-width="1.2"/>
  <path d="M240 372 L242 378 L248 378 L243 382 L245 388 L240 384 L235 388 L237 382 L232 378 L238 378Z" stroke-width="1.2"/>
  <path d="M195 410 L197 415 L202 415 L198 418 L200 423 L195 420 L190 423 L192 418 L188 415 L193 415Z" stroke-width="1.2"/>

  <!-- BRAS -->
  <path d="M150 288 Q132 308 128 336 Q128 348 134 356 Q140 362 148 358 Q156 353 156 340 Q156 325 162 304"/>
  <path d="M270 288 Q288 308 292 336 Q292 348 286 356 Q280 362 272 358 Q264 353 264 340 Q264 325 258 304"/>

  <!-- MAINS ET BAGUETTE -->
  <!-- Main droite avec baguette -->
  <path d="M286 354 Q292 360 290 368 Q288 376 282 376 Q278 376 276 370"/>
  <path d="M280 374 Q278 382 274 388 Q270 392 268 388"/>
  <path d="M276 374 Q275 382 272 390"/>
  <line x1="288" y1="372" x2="340" y2="308" stroke-width="3"/>
  <!-- Étoile baguette -->
  <path d="M340 308 L344 320 L356 320 L347 328 L350 340 L340 332 L330 340 L333 328 L324 320 L336 320Z"/>
  <!-- Étincelles -->
  <path d="M356 296 L358 302 L364 302 L360 306 L361 312 L356 308 L351 312 L352 306 L348 302 L354 302Z" stroke-width="1.2"/>
  <path d="M366 320 L368 325 L373 325 L369 328 L370 333 L366 330 L362 333 L363 328 L359 325 L364 325Z" stroke-width="1.2"/>
  <path d="M350 340 L352 345 L357 345 L353 348 L354 353 L350 350 L346 353 L347 348 L343 345 L348 345Z" stroke-width="1.2"/>

  <!-- PIEDS -->
  <path d="M158 444 Q150 450 142 458 Q138 464 143 468 Q150 472 162 466 Q170 462 170 454 Q170 448 164 445Z"/>
  <path d="M262 444 Q270 450 278 458 Q282 464 277 468 Q270 472 258 466 Q250 462 250 454 Q250 448 256 445Z"/>

  <!-- COURONNE DE FLEURS -->
  <path d="M178 128 Q188 116 200 120 Q212 116 222 128"/>
  <circle cx="178" cy="128" r="7"/>
  <circle cx="178" cy="128" r="4"/>
  <circle cx="200" cy="118" r="8"/>
  <circle cx="200" cy="118" r="4"/>
  <circle cx="222" cy="128" r="7"/>
  <circle cx="222" cy="128" r="4"/>
  <circle cx="189" cy="116" r="5"/>
  <circle cx="211" cy="116" r="5"/>

</svg>
