<svg xmlns="http://www.w3.org/2000/svg" viewBox="0 0 500 500" fill="none" stroke="#1a1a1a" stroke-width="2" stroke-linecap="round" stroke-linejoin="round">

  <!-- CRINIÈRE EXTÉRIEURE ARRIÈRE -->
  <!-- Flammes crinière tout autour -->
  <path d="M250 108 Q238 72 218 60 Q205 52 196 62 Q188 72 196 86 Q204 100 215 108"/>
  <path d="M250 108 Q262 72 282 60 Q295 52 304 62 Q312 72 304 86 Q296 100 285 108"/>
  <path d="M215 110 Q192 82 170 82 Q152 82 146 96 Q140 110 150 124 Q160 136 176 136"/>
  <path d="M285 110 Q308 82 330 82 Q348 82 354 96 Q360 110 350 124 Q340 136 324 136"/>
  <path d="M176 138 Q148 118 128 128 Q112 136 110 152 Q108 168 122 178 Q136 186 154 182"/>
  <path d="M324 138 Q352 118 372 128 Q388 136 390 152 Q392 168 378 178 Q364 186 346 182"/>
  <path d="M154 184 Q128 176 118 194 Q110 210 118 226 Q128 240 146 240"/>
  <path d="M346 184 Q372 176 382 194 Q390 210 382 226 Q372 240 354 240"/>
  <path d="M146 242 Q124 244 118 262 Q114 278 126 290 Q138 302 158 298"/>
  <path d="M354 242 Q376 244 382 262 Q386 278 374 290 Q362 302 342 298"/>
  <path d="M158 300 Q140 310 142 328 Q144 344 158 352 Q172 358 186 350"/>
  <path d="M342 300 Q360 310 358 328 Q356 344 342 352 Q328 358 314 350"/>

  <!-- CORPS (poitrine) -->
  <path d="M160 310 Q148 340 150 370 Q152 398 168 416 Q185 432 210 436 Q235 440 255 430 Q278 418 288 398 Q298 376 295 348 Q292 322 278 308"/>
  <!-- Pelage ventre -->
  <path d="M182 368 Q210 378 238 368" stroke-width="1.5"/>
  <path d="M178 388 Q210 400 242 388" stroke-width="1.5"/>
  <path d="M180 408 Q210 418 240 408" stroke-width="1.5"/>

  <!-- TÊTE -->
  <path d="M156 184 Q148 218 150 248 Q154 278 166 300 Q182 325 210 332 Q238 325 254 300 Q266 278 270 248 Q272 218 264 184 Q256 158 240 148 Q226 140 210 140 Q194 140 178 148 Q162 158 156 184Z"/>

  <!-- OREILLES -->
  <path d="M178 150 Q168 118 185 108 Q198 100 205 118"/>
  <path d="M180 148 Q172 122 186 114 Q197 108 202 122" stroke-width="1.5"/>
  <path d="M242 150 Q252 118 235 108 Q222 100 215 118"/>
  <path d="M240 148 Q248 122 234 114 Q223 108 218 122" stroke-width="1.5"/>

  <!-- YEUX (grands et expressifs) -->
  <!-- Oeil gauche -->
  <path d="M172 205 Q182 193 196 196 Q210 193 214 205 Q212 222 196 226 Q180 222 172 205Z"/>
  <ellipse cx="194" cy="210" rx="12" ry="13" fill="#1a1a1a"/>
  <circle cx="189" cy="205" r="5" fill="white"/>
  <circle cx="198" cy="216" r="2.5" fill="white"/>
  <!-- Cils oeil gauche -->
  <path d="M172 204 L167 197 M178 200 L174 193 M185 197 L183 190 M192 196 L192 189 M199 198 L200 191 M207 201 L209 195 M214 205 L217 200"/>
  <!-- Sourcil gauche -->
  <path d="M170 192 Q183 184 210 188" stroke-width="2.5"/>

  <!-- Oeil droit -->
  <path d="M206 205 Q210 193 224 196 Q238 193 248 205 Q244 222 224 226 Q208 222 206 205Z"/>
  <ellipse cx="226" cy="210" rx="12" ry="13" fill="#1a1a1a"/>
  <circle cx="221" cy="205" r="5" fill="white"/>
  <circle cx="230" cy="216" r="2.5" fill="white"/>
  <!-- Cils oeil droit -->
  <path d="M206 205 L203 200 M212 200 L210 194 M219 198 L218 191 M226 196 L226 189 M233 198 L234 191 M240 201 L242 195 M248 205 L251 200"/>
  <!-- Sourcil droit -->
  <path d="M210 188 Q237 184 250 192" stroke-width="2.5"/>

  <!-- NEZ LARGE -->
  <path d="M196 252 Q210 260 224 252 Q222 272 210 276 Q198 272 196 252Z"/>
  <path d="M196 252 Q210 248 224 252" stroke-width="1.5"/>
  <!-- Narines -->
  <path d="M200 258 Q205 255 208 258 Q206 263 202 261Z" stroke-width="1.2"/>
  <path d="M212 258 Q217 255 220 258 Q218 263 214 261Z" stroke-width="1.2"/>

  <!-- MOUSTACHES -->
  <line x1="140" y1="262" x2="194" y2="258" stroke-width="1.8"/>
  <line x1="138" y1="272" x2="194" y2="270" stroke-width="1.8"/>
  <line x1="140" y1="282" x2="195" y2="278" stroke-width="1.8"/>
  <line x1="280" y1="262" x2="226" y2="258" stroke-width="1.8"/>
  <line x1="282" y1="272" x2="226" y2="270" stroke-width="1.8"/>
  <line x1="280" y1="282" x2="225" y2="278" stroke-width="1.8"/>
  <!-- Points moustaches -->
  <circle cx="194" cy="258" r="2"/>
  <circle cx="194" cy="270" r="2"/>
  <circle cx="195" cy="278" r="2"/>
  <circle cx="226" cy="258" r="2"/>
  <circle cx="226" cy="270" r="2"/>
  <circle cx="225" cy="278" r="2"/>

  <!-- BOUCHE -->
  <path d="M196 276 Q210 290 224 276"/>
  <path d="M196 276 L210 283"/>
  <path d="M224 276 L210 283"/>
  <!-- Langue -->
  <path d="M204 286 Q210 294 216 286 Q213 302 210 304 Q207 302 204 286Z"/>

  <!-- JOUES TOUFFUES -->
  <path d="M158 255 Q166 248 175 255 Q178 262 175 268 Q168 274 160 270 Q154 264 158 255Z" stroke-width="1.2" opacity="0.5"/>
  <path d="M245 255 Q253 248 261 255 Q264 262 261 268 Q254 274 246 270 Q240 264 245 255Z" stroke-width="1.2" opacity="0.5"/>
  <!-- Poils joues -->
  <path d="M158 252 L152 245 M162 250 L158 243 M167 249 L164 242 M172 250 L171 243" stroke-width="1.2"/>
  <path d="M262 252 L268 245 M258 250 L262 243 M253 249 L256 242 M248 250 L249 243" stroke-width="1.2"/>

  <!-- PATTES AVANT -->
  <!-- Patte avant gauche -->
  <path d="M168 418 Q156 440 148 468 L172 468 Q176 448 183 428"/>
  <path d="M183 428 Q178 450 178 470 L196 470 Q196 450 196 432"/>
  <!-- Griffes gauche -->
  <path d="M148 464 Q148 474 154 476 M156 466 Q157 476 163 477 M164 467 Q166 477 172 477 M172 466 Q175 476 180 476"/>

  <!-- Patte avant droite -->
  <path d="M252 428 Q248 450 248 470 L266 470 Q265 450 262 430"/>
  <path d="M262 430 Q270 450 271 470 L289 468 Q286 448 278 426"/>
  <!-- Griffes droite -->
  <path d="M248 466 Q248 476 254 477 M256 468 Q257 478 263 478 M264 468 Q266 478 272 477 M272 466 Q276 476 281 475"/>

  <!-- QUEUE -->
  <path d="M210 430 Q260 448 295 478 Q315 496 308 508 Q300 518 285 510"/>
  <!-- Touffe queue -->
  <path d="M285 510 Q278 492 295 482 Q308 474 315 486 Q320 498 310 508 Q298 518 285 510Z"/>
  <!-- Poils touffe -->
  <path d="M290 498 L282 494 M295 494 L290 488 M300 492 L298 484 M305 494 L305 486" stroke-width="1.5"/>

</svg>
