<svg xmlns="http://www.w3.org/2000/svg" viewBox="0 0 420 520" fill="none" stroke="#1a1a1a" stroke-width="2" stroke-linecap="round" stroke-linejoin="round">

  <!-- ÉTOILE DU SOMMET -->
  <path d="M210 22 L215 38 L232 38 L219 48 L224 64 L210 54 L196 64 L201 48 L188 38 L205 38Z" stroke-width="2"/>
  <!-- Rayons étoile -->
  <line x1="210" y1="12" x2="210" y2="6" stroke-width="2"/>
  <line x1="236" y1="20" x2="240" y2="15" stroke-width="2"/>
  <line x1="246" y1="44" x2="252" y2="42" stroke-width="2"/>
  <line x1="184" y1="20" x2="180" y2="15" stroke-width="2"/>
  <line x1="174" y1="44" x2="168" y2="42" stroke-width="2"/>

  <!-- TRIANGLE SAPIN NIVEAU 1 (petit, haut) -->
  <path d="M210 52 L248 112 L172 112Z"/>
  <!-- Neige niveau 1 -->
  <path d="M172 112 Q185 106 198 112" stroke-width="1.5"/>
  <path d="M222 112 Q235 106 248 112" stroke-width="1.5"/>

  <!-- TRIANGLE NIVEAU 2 -->
  <path d="M210 82 Q210 90 210 95 L260 158 L160 158Z"/>
  <!-- Neige niveau 2 -->
  <path d="M160 158 Q175 150 192 158" stroke-width="1.5"/>
  <path d="M228 158 Q245 150 260 158" stroke-width="1.5"/>
  <!-- Décoration niveau 2 -->
  <circle cx="210" cy="130" r="9"/>
  <circle cx="210" cy="130" r="5"/>
  <circle cx="184" cy="148" r="8"/>
  <circle cx="184" cy="148" r="4"/>
  <circle cx="236" cy="148" r="8"/>
  <circle cx="236" cy="148" r="4"/>

  <!-- TRIANGLE NIVEAU 3 -->
  <path d="M210 118 L272 200 L148 200Z"/>
  <!-- Neige niveau 3 -->
  <path d="M148 200 Q164 192 182 200" stroke-width="1.5"/>
  <path d="M238 200 Q256 192 272 200" stroke-width="1.5"/>
  <!-- Décorations niveau 3 -->
  <circle cx="178" cy="178" r="10"/>
  <circle cx="178" cy="178" r="5"/>
  <circle cx="242" cy="178" r="10"/>
  <circle cx="242" cy="178" r="5"/>
  <circle cx="210" cy="190" r="8"/>
  <circle cx="210" cy="190" r="4"/>
  <!-- Guirlande niveau 3 -->
  <path d="M158 188 Q165 182 172 188 Q179 182 186 188 Q193 182 200 188 Q207 182 214 188 Q221 182 228 188 Q235 182 242 188 Q249 182 256 188 Q262 182 262 188" stroke-width="1.2"/>

  <!-- TRIANGLE NIVEAU 4 -->
  <path d="M210 158 L285 258 L135 258Z"/>
  <!-- Neige niveau 4 -->
  <path d="M135 258 Q152 249 171 258" stroke-width="1.5"/>
  <path d="M249 258 Q268 249 285 258" stroke-width="1.5"/>
  <!-- Décorations niveau 4 -->
  <circle cx="162" cy="230" r="11"/>
  <circle cx="162" cy="230" r="6"/>
  <circle cx="210" cy="238" r="10"/>
  <circle cx="210" cy="238" r="5"/>
  <circle cx="258" cy="230" r="11"/>
  <circle cx="258" cy="230" r="6"/>
  <!-- Guirlande niveau 4 -->
  <path d="M145 245 Q153 238 161 245 Q169 238 177 245 Q185 238 193 245 Q201 238 209 245 Q217 238 225 245 Q233 238 241 245 Q249 238 257 245 Q265 238 275 245" stroke-width="1.2"/>

  <!-- TRIANGLE NIVEAU 5 (le plus grand) -->
  <path d="M210 205 L300 320 L120 320Z"/>
  <!-- Neige niveau 5 -->
  <path d="M120 320 Q138 310 158 320" stroke-width="1.5"/>
  <path d="M262 320 Q282 310 300 320" stroke-width="1.5"/>
  <!-- Décorations niveau 5 -->
  <circle cx="150" cy="290" r="12"/>
  <circle cx="150" cy="290" r="6"/>
  <circle cx="195" cy="302" r="10"/>
  <circle cx="195" cy="302" r="5"/>
  <circle cx="225" cy="302" r="10"/>
  <circle cx="225" cy="302" r="5"/>
  <circle cx="270" cy="290" r="12"/>
  <circle cx="270" cy="290" r="6"/>
  <circle cx="210" cy="314" r="8"/>
  <!-- Guirlande niveau 5 -->
  <path d="M130 305 Q139 297 148 305 Q157 297 166 305 Q175 297 184 305 Q193 297 202 305 Q211 297 220 305 Q229 297 238 305 Q247 297 256 305 Q265 297 274 305 Q282 297 290 305" stroke-width="1.2"/>
  <!-- Petites étoiles -->
  <path d="M165 272 L167 278 L173 278 L168 282 L170 288 L165 284 L160 288 L162 282 L157 278 L163 278Z" stroke-width="1.2"/>
  <path d="M248 268 L250 274 L256 274 L251 278 L253 284 L248 280 L243 284 L245 278 L240 274 L246 274Z" stroke-width="1.2"/>

  <!-- TRONC -->
  <rect x="188" y="320" width="44" height="60" rx="5"/>
  <!-- Texture tronc -->
  <path d="M194 332 Q210 328 226 332" stroke-width="1.2"/>
  <path d="M192 344 Q210 340 228 344" stroke-width="1.2"/>
  <path d="M193 356 Q210 352 227 356" stroke-width="1.2"/>
  <path d="M194 368 Q210 364 226 368" stroke-width="1.2"/>

  <!-- BASE NEIGE -->
  <path d="M120 320 Q165 312 210 314 Q255 312 300 320 Q305 330 300 336 L120 336 Q115 330 120 320Z"/>
  <path d="M115 333 Q162 325 210 327 Q258 325 305 333"/>

  <!-- CADEAU GAUCHE -->
  <rect x="85" y="380" width="72" height="60" rx="6"/>
  <rect x="90" y="385" width="62" height="50" rx="4" stroke-width="1.2"/>
  <!-- Ruban cadeau gauche -->
  <line x1="121" y1="380" x2="121" y2="440" stroke-width="2"/>
  <path d="M88 408 Q121 402 154 408" stroke-width="2"/>
  <!-- Noeud gauche -->
  <path d="M112 380 Q114 368 121 372 Q128 368 130 380"/>
  <path d="M116 374 Q121 366 126 374 Q121 370 116 374Z"/>
  <!-- Motif cadeau gauche -->
  <path d="M92 392 Q100 388 108 392 Q116 388 124 392 Q132 388 140 392 Q148 388 154 392" stroke-width="1.2"/>
  <path d="M92 418 Q100 414 108 418 Q116 414 124 418 Q132 414 140 418 Q148 414 154 418" stroke-width="1.2"/>

  <!-- CADEAU DROIT -->
  <rect x="263" y="380" width="72" height="60" rx="6"/>
  <rect x="268" y="385" width="62" height="50" rx="4" stroke-width="1.2"/>
  <!-- Ruban cadeau droit -->
  <line x1="299" y1="380" x2="299" y2="440" stroke-width="2"/>
  <path d="M266 408 Q299 402 332 408" stroke-width="2"/>
  <!-- Noeud droit -->
  <path d="M290 380 Q292 368 299 372 Q306 368 308 380"/>
  <path d="M294 374 Q299 366 304 374 Q299 370 294 374Z"/>
  <!-- Etoiles cadeau droit -->
  <path d="M272 394 L274 399 L279 399 L275 402 L276 407 L272 404 L268 407 L269 402 L265 399 L270 399Z" stroke-width="1.2"/>
  <path d="M310 420 L312 425 L317 425 L313 428 L314 433 L310 430 L306 433 L307 428 L303 425 L308 425Z" stroke-width="1.2"/>

  <!-- PETIT CADEAU CENTRE -->
  <rect x="170" y="400" width="80" height="50" rx="6"/>
  <!-- Ruban centre -->
  <line x1="210" y1="400" x2="210" y2="450" stroke-width="2"/>
  <path d="M172 423 Q210 417 248 423" stroke-width="2"/>
  <!-- Noeud centre -->
  <path d="M200 400 Q202 388 210 392 Q218 388 220 400"/>
  <path d="M204 393 Q210 385 216 393 Q210 389 204 393Z"/>
  <!-- Motifs petit cadeau -->
  <circle cx="185" cy="415" r="5"/>
  <circle cx="235" cy="415" r="5"/>
  <circle cx="185" cy="435" r="5"/>
  <circle cx="235" cy="435" r="5"/>

  <!-- FLOCONS DE NEIGE -->
  <!-- Flocon 1 -->
  <g transform="translate(58,200)">
    <line x1="0" y1="-18" x2="0" y2="18" stroke-width="1.5"/>
    <line x1="-18" y1="0" x2="18" y2="0" stroke-width="1.5"/>
    <line x1="-13" y1="-13" x2="13" y2="13" stroke-width="1.5"/>
    <line x1="13" y1="-13" x2="-13" y2="13" stroke-width="1.5"/>
    <line x1="0" y1="-10" x2="-5" y2="-6" stroke-width="1.2"/>
    <line x1="0" y1="-10" x2="5" y2="-6" stroke-width="1.2"/>
    <line x1="10" y1="0" x2="6" y2="-5" stroke-width="1.2"/>
    <line x1="10" y1="0" x2="6" y2="5" stroke-width="1.2"/>
    <circle cx="0" cy="0" r="4"/>
  </g>
  <!-- Flocon 2 -->
  <g transform="translate(362,140)">
    <line x1="0" y1="-15" x2="0" y2="15" stroke-width="1.5"/>
    <line x1="-15" y1="0" x2="15" y2="0" stroke-width="1.5"/>
    <line x1="-11" y1="-11" x2="11" y2="11" stroke-width="1.5"/>
    <line x1="11" y1="-11" x2="-11" y2="11" stroke-width="1.5"/>
    <circle cx="0" cy="0" r="3"/>
  </g>
  <!-- Flocon 3 -->
  <g transform="translate(50,340)">
    <line x1="0" y1="-12" x2="0" y2="12" stroke-width="1.5"/>
    <line x1="-12" y1="0" x2="12" y2="0" stroke-width="1.5"/>
    <line x1="-9" y1="-9" x2="9" y2="9" stroke-width="1.5"/>
    <line x1="9" y1="-9" x2="-9" y2="9" stroke-width="1.5"/>
    <circle cx="0" cy="0" r="3"/>
  </g>
  <!-- Flocon 4 -->
  <g transform="translate(370,310)">
    <line x1="0" y1="-14" x2="0" y2="14" stroke-width="1.5"/>
    <line x1="-14" y1="0" x2="14" y2="0" stroke-width="1.5"/>
    <line x1="-10" y1="-10" x2="10" y2="10" stroke-width="1.5"/>
    <line x1="10" y1="-10" x2="-10" y2="10" stroke-width="1.5"/>
    <circle cx="0" cy="0" r="3"/>
  </g>

</svg>
