<svg xmlns="http://www.w3.org/2000/svg" viewBox="0 0 400 520" fill="none" stroke="#1a1a1a" stroke-width="2" stroke-linecap="round" stroke-linejoin="round">

  <!-- CHEVEUX ARRIÈRE (dessinés avant le corps) -->
  <path d="M148 148 Q110 180 105 240 Q100 300 108 360 Q116 400 130 430 Q140 450 148 460" stroke-width="2.5"/>
  <path d="M252 148 Q290 180 295 240 Q300 300 292 360 Q284 400 270 430 Q260 450 252 460" stroke-width="2.5"/>
  <path d="M145 152 Q115 195 118 280 Q120 330 132 380" stroke-width="1.5"/>
  <path d="M255 152 Q285 195 282 280 Q280 330 268 380" stroke-width="1.5"/>

  <!-- COURONNE -->
  <path d="M155 118 L163 88 L178 108 L200 76 L222 108 L237 88 L245 118" stroke-width="2.2"/>
  <path d="M152 122 Q200 114 248 122" stroke-width="2"/>
  <!-- Pierres couronne -->
  <ellipse cx="200" cy="80" rx="7" ry="8"/>
  <ellipse cx="163" cy="92" rx="5" ry="6"/>
  <ellipse cx="237" cy="92" rx="5" ry="6"/>
  <path d="M196 76 L200 68 L204 76" stroke-width="1.2"/>
  <!-- Décor couronne -->
  <path d="M158 116 Q165 110 172 116" stroke-width="1.2"/>
  <path d="M228 116 Q235 110 242 116" stroke-width="1.2"/>
  <path d="M185 118 Q192 112 200 118 Q208 112 215 118" stroke-width="1.2"/>

  <!-- TÊTE -->
  <path d="M148 178 Q145 148 160 134 Q175 120 200 118 Q225 120 240 134 Q255 148 252 178 Q255 210 248 228 Q235 252 200 256 Q165 252 152 228 Q145 210 148 178Z"/>

  <!-- CHEVEUX AVANT / FRANGE -->
  <path d="M155 138 Q160 128 175 130 Q185 132 188 140"/>
  <path d="M245 138 Q240 128 225 130 Q215 132 212 140"/>
  <path d="M172 128 Q185 118 200 120 Q215 118 228 128"/>
  <path d="M160 132 Q168 122 178 124" stroke-width="1.5"/>
  <path d="M240 132 Q232 122 222 124" stroke-width="1.5"/>
  <!-- Ondulation frange -->
  <path d="M164 136 Q170 130 178 134 Q186 128 194 133 Q202 128 210 133 Q218 128 226 134 Q234 130 240 136" stroke-width="1.5"/>

  <!-- OREILLES -->
  <path d="M148 178 Q138 182 136 192 Q135 202 142 206 Q148 208 152 202"/>
  <path d="M252 178 Q262 182 264 192 Q265 202 258 206 Q252 208 248 202"/>
  <path d="M140 186 Q139 193 143 198" stroke-width="1.2"/>
  <path d="M260 186 Q261 193 257 198" stroke-width="1.2"/>

  <!-- YEUX (grands et expressifs) -->
  <!-- Oeil gauche -->
  <path d="M164 168 Q172 160 183 162 Q194 160 198 168 Q196 180 183 182 Q170 180 164 168Z"/>
  <path d="M164 168 Q172 162 183 164 Q194 162 198 168" stroke-width="1"/>
  <ellipse cx="182" cy="172" rx="8" ry="9" fill="#1a1a1a"/>
  <circle cx="178" cy="168" r="3" fill="white"/>
  <circle cx="185" cy="176" r="1.5" fill="white"/>
  <!-- Cils oeil gauche -->
  <path d="M164 168 L160 162 M169 165 L166 159 M175 163 L173 157 M181 162 L181 156 M187 163 L189 157 M193 165 L196 160 M198 168 L202 164"/>
  <path d="M168 178 L165 183 M175 181 L174 186 M182 182 L182 187"/>

  <!-- Oeil droit -->
  <path d="M202 168 Q206 160 217 162 Q228 160 236 168 Q236 180 217 182 Q204 180 202 168Z"/>
  <path d="M202 168 Q208 162 217 164 Q228 162 236 168" stroke-width="1"/>
  <ellipse cx="218" cy="172" rx="8" ry="9" fill="#1a1a1a"/>
  <circle cx="214" cy="168" r="3" fill="white"/>
  <circle cx="221" cy="176" r="1.5" fill="white"/>
  <!-- Cils oeil droit -->
  <path d="M202 168 L198 164 M208 165 L207 159 M214 163 L215 157 M220 162 L221 156 M226 163 L228 157 M231 165 L234 160 M236 168 L240 162"/>
  <path d="M232 178 L235 183 M225 181 L226 186 M218 182 L218 187"/>

  <!-- SOURCILS -->
  <path d="M162 158 Q172 151 194 155" stroke-width="2.2"/>
  <path d="M206 155 Q228 151 238 158" stroke-width="2.2"/>

  <!-- NEZ -->
  <path d="M196 192 Q199 198 202 196 Q205 198 204 192" stroke-width="1.5"/>
  <path d="M196 196 Q200 200 204 196" stroke-width="1.2"/>

  <!-- BOUCHE -->
  <path d="M182 214 Q191 208 200 210 Q209 208 218 214"/>
  <path d="M182 214 Q191 222 200 224 Q209 222 218 214"/>
  <path d="M188 222 Q200 226 212 222" stroke-width="1"/>
  <!-- Fossettes -->
  <path d="M178 216 Q176 218 178 220" stroke-width="1.2"/>
  <path d="M222 216 Q224 218 222 220" stroke-width="1.2"/>

  <!-- JOUES -->
  <path d="M154 196 Q162 190 170 196 Q165 204 157 202 Q153 200 154 196Z" stroke-width="1" opacity="0.4"/>
  <path d="M230 196 Q238 190 246 196 Q246 202 238 204 Q230 204 230 196Z" stroke-width="1" opacity="0.4"/>

  <!-- COU -->
  <path d="M186 254 Q182 258 182 268 Q182 278 186 282 L186 288"/>
  <path d="M214 254 Q218 258 218 268 Q218 278 214 282 L214 288"/>
  <!-- Collier -->
  <path d="M182 280 Q200 286 218 280" stroke-width="1.5"/>
  <circle cx="200" cy="284" r="4"/>
  <circle cx="190" cy="282" r="2.5"/>
  <circle cx="210" cy="282" r="2.5"/>

  <!-- ÉPAULES / BUSTE -->
  <path d="M152 288 Q140 292 132 302 Q126 310 128 318"/>
  <path d="M248 288 Q260 292 268 302 Q274 310 272 318"/>

  <!-- BRAS GAUCHE -->
  <path d="M132 318 Q118 340 116 368 Q116 380 122 388 Q128 394 136 390 Q144 386 145 374 Q146 360 140 342 Q138 330 138 320"/>
  <!-- Gant / manchette -->
  <path d="M116 374 Q120 384 128 390 Q136 394 144 388" stroke-width="1.5"/>
  <path d="M115 370 Q120 382 130 388 Q140 392 146 384" stroke-width="1"/>
  <!-- Main gauche -->
  <path d="M116 388 Q112 394 114 400 Q117 406 124 404"/>
  <path d="M124 404 Q126 412 122 416 Q118 418 116 414"/>
  <path d="M122 404 Q126 414 124 420"/>
  <path d="M128 402 Q134 412 132 418"/>
  <path d="M134 400 Q140 408 138 414"/>

  <!-- BRAS DROIT -->
  <path d="M268 318 Q282 340 284 368 Q284 380 278 388 Q272 394 264 390 Q256 386 255 374 Q254 360 260 342 Q262 330 262 320"/>
  <!-- Gant / manchette -->
  <path d="M284 374 Q280 384 272 390 Q264 394 256 388" stroke-width="1.5"/>
  <path d="M285 370 Q280 382 270 388 Q260 392 254 384" stroke-width="1"/>
  <!-- Main droite -->
  <path d="M284 388 Q288 394 286 400 Q283 406 276 404"/>
  <path d="M276 404 Q274 412 278 416 Q282 418 284 414"/>
  <path d="M278 404 Q274 414 276 420"/>
  <path d="M272 402 Q266 412 268 418"/>
  <path d="M266 400 Q260 408 262 414"/>

  <!-- ROBE CORPS -->
  <path d="M152 290 Q138 298 132 310 L128 322 Q164 302 200 300 Q236 302 272 322 L268 310 Q262 298 248 290"/>

  <!-- JUPE (évasée, volumineuse) -->
  <path d="M128 322 Q96 360 84 410 Q80 440 88 460 L312 460 Q320 440 316 410 Q304 360 272 322 Q236 302 200 300 Q164 302 128 322Z"/>

  <!-- COUCHES JUPE -->
  <path d="M92 400 Q140 388 200 390 Q260 388 308 400" stroke-width="1.5"/>
  <path d="M86 430 Q140 416 200 418 Q260 416 314 430" stroke-width="1.5"/>

  <!-- DÉCORATIONS ROBE -->
  <!-- Guirlande haut -->
  <path d="M132 332 Q140 326 148 332 Q156 326 164 332 Q172 326 180 332 Q188 326 196 332 Q204 326 212 332 Q220 326 228 332 Q236 326 244 332 Q252 326 260 332 Q268 326 268 332" stroke-width="1.2"/>
  <!-- Étoiles sur la robe -->
  <path d="M155 360 L157 366 L163 366 L158 370 L160 376 L155 372 L150 376 L152 370 L147 366 L153 366Z" stroke-width="1.2"/>
  <path d="M230 350 L232 356 L238 356 L233 360 L235 366 L230 362 L225 366 L227 360 L222 356 L228 356Z" stroke-width="1.2"/>
  <path d="M182 408 L184 413 L189 413 L185 416 L187 421 L182 418 L177 421 L179 416 L175 413 L180 413Z" stroke-width="1.2"/>
  <path d="M218 420 L220 425 L225 425 L221 428 L223 433 L218 430 L213 433 L215 428 L211 425 L216 425Z" stroke-width="1.2"/>
  <!-- Petits coeurs -->
  <path d="M165 385 Q167 382 170 385 Q173 382 175 385 Q175 389 170 393 Q165 389 165 385Z" stroke-width="1"/>
  <path d="M240 380 Q242 377 245 380 Q248 377 250 380 Q250 384 245 388 Q240 384 240 380Z" stroke-width="1"/>
  <!-- Petites fleurs -->
  <circle cx="200" cy="370" r="4"/>
  <circle cx="195" cy="366" r="3"/><circle cx="205" cy="366" r="3"/>
  <circle cx="192" cy="372" r="3"/><circle cx="208" cy="372" r="3"/>
  <circle cx="200" cy="376" r="3"/>

  <!-- PIEDS / CHAUSSURES -->
  <path d="M140 456 Q132 460 126 468 Q122 474 128 478 Q138 482 154 476 Q162 472 162 464 Q162 458 156 456Z"/>
  <path d="M260 456 Q268 460 274 468 Q278 474 272 478 Q262 482 246 476 Q238 472 238 464 Q238 458 244 456Z"/>
  <!-- Détail chaussures -->
  <path d="M130 472 Q140 468 152 472" stroke-width="1.2"/>
  <path d="M270 472 Q260 468 248 472" stroke-width="1.2"/>
  <circle cx="140" cy="468" r="3"/>
  <circle cx="260" cy="468" r="3"/>

</svg>
